<mxfile host="app.diagrams.net" modified="2023-05-13T18:49:53.613Z" agent="Mozilla/5.0 (Windows NT 10.0; Win64; x64) AppleWebKit/537.36 (KHTML, like Gecko) Chrome/113.0.0.0 Safari/537.36" etag="k5nOBLUgUYBf2H4h7Acw" version="21.3.0" type="device">
  <diagram id="R2lEEEUBdFMjLlhIrx00" name="Page-1">
    <mxGraphModel dx="261" dy="915" grid="0" gridSize="10" guides="1" tooltips="1" connect="1" arrows="1" fold="1" page="0" pageScale="1" pageWidth="850" pageHeight="1100" math="0" shadow="0" extFonts="Permanent Marker^https://fonts.googleapis.com/css?family=Permanent+Marker">
      <root>
        <mxCell id="0" />
        <mxCell id="1" parent="0" />
        <mxCell id="uVwZbVEdoKsYDZkxIZQF-29" value="user_roles" style="shape=table;startSize=30;container=1;collapsible=1;childLayout=tableLayout;fixedRows=1;rowLines=0;fontStyle=1;align=center;resizeLast=1;fontFamily=Times New Roman;fontSize=14;bottom=1;" parent="1" vertex="1">
          <mxGeometry x="840" y="610" width="250" height="90" as="geometry" />
        </mxCell>
        <mxCell id="uVwZbVEdoKsYDZkxIZQF-30" value="" style="shape=partialRectangle;collapsible=0;dropTarget=0;pointerEvents=0;fillColor=none;points=[[0,0.5],[1,0.5]];portConstraint=eastwest;top=0;left=0;right=0;bottom=1;fontFamily=Times New Roman;fontSize=14;fontStyle=1" parent="uVwZbVEdoKsYDZkxIZQF-29" vertex="1">
          <mxGeometry y="30" width="250" height="30" as="geometry" />
        </mxCell>
        <mxCell id="uVwZbVEdoKsYDZkxIZQF-31" value="PK" style="shape=partialRectangle;overflow=hidden;connectable=0;fillColor=none;top=0;left=0;bottom=0;right=0;fontStyle=1;fontFamily=Times New Roman;fontSize=14;" parent="uVwZbVEdoKsYDZkxIZQF-30" vertex="1">
          <mxGeometry width="30" height="30" as="geometry">
            <mxRectangle width="30" height="30" as="alternateBounds" />
          </mxGeometry>
        </mxCell>
        <mxCell id="uVwZbVEdoKsYDZkxIZQF-32" value="id" style="shape=partialRectangle;overflow=hidden;connectable=0;fillColor=none;top=0;left=0;bottom=0;right=0;align=left;spacingLeft=6;fontStyle=1;fontFamily=Times New Roman;fontSize=14;strokeColor=default;" parent="uVwZbVEdoKsYDZkxIZQF-30" vertex="1">
          <mxGeometry x="30" width="220" height="30" as="geometry">
            <mxRectangle width="220" height="30" as="alternateBounds" />
          </mxGeometry>
        </mxCell>
        <mxCell id="uVwZbVEdoKsYDZkxIZQF-33" value="" style="shape=partialRectangle;collapsible=0;dropTarget=0;pointerEvents=0;fillColor=none;points=[[0,0.5],[1,0.5]];portConstraint=eastwest;top=0;left=0;right=0;bottom=0;fontFamily=Times New Roman;fontSize=14;fontStyle=1" parent="uVwZbVEdoKsYDZkxIZQF-29" vertex="1">
          <mxGeometry y="60" width="250" height="30" as="geometry" />
        </mxCell>
        <mxCell id="uVwZbVEdoKsYDZkxIZQF-34" value="" style="shape=partialRectangle;overflow=hidden;connectable=0;fillColor=none;top=0;left=0;bottom=1;right=0;fontFamily=Times New Roman;fontSize=14;fontStyle=1" parent="uVwZbVEdoKsYDZkxIZQF-33" vertex="1">
          <mxGeometry width="30" height="30" as="geometry">
            <mxRectangle width="30" height="30" as="alternateBounds" />
          </mxGeometry>
        </mxCell>
        <mxCell id="uVwZbVEdoKsYDZkxIZQF-35" value="role" style="shape=partialRectangle;overflow=hidden;connectable=0;fillColor=none;top=0;left=0;bottom=1;right=0;align=left;spacingLeft=6;fontFamily=Times New Roman;fontSize=14;fontStyle=1" parent="uVwZbVEdoKsYDZkxIZQF-33" vertex="1">
          <mxGeometry x="30" width="220" height="30" as="geometry">
            <mxRectangle width="220" height="30" as="alternateBounds" />
          </mxGeometry>
        </mxCell>
        <mxCell id="uVwZbVEdoKsYDZkxIZQF-36" value="users" style="shape=table;startSize=30;container=1;collapsible=1;childLayout=tableLayout;fixedRows=1;rowLines=0;fontStyle=1;align=center;resizeLast=1;fontFamily=Times New Roman;fontSize=14;bottom=1;" parent="1" vertex="1">
          <mxGeometry x="840" y="360" width="250" height="210" as="geometry">
            <mxRectangle x="120" y="110" width="110" height="30" as="alternateBounds" />
          </mxGeometry>
        </mxCell>
        <mxCell id="uVwZbVEdoKsYDZkxIZQF-37" value="" style="shape=partialRectangle;collapsible=0;dropTarget=0;pointerEvents=0;fillColor=none;points=[[0,0.5],[1,0.5]];portConstraint=eastwest;top=0;left=0;right=0;bottom=1;fontFamily=Times New Roman;fontSize=14;fontStyle=1" parent="uVwZbVEdoKsYDZkxIZQF-36" vertex="1">
          <mxGeometry y="30" width="250" height="30" as="geometry" />
        </mxCell>
        <mxCell id="uVwZbVEdoKsYDZkxIZQF-38" value="PK" style="shape=partialRectangle;overflow=hidden;connectable=0;fillColor=none;top=0;left=0;bottom=0;right=0;fontStyle=1;fontFamily=Times New Roman;fontSize=14;" parent="uVwZbVEdoKsYDZkxIZQF-37" vertex="1">
          <mxGeometry width="30" height="30" as="geometry">
            <mxRectangle width="30" height="30" as="alternateBounds" />
          </mxGeometry>
        </mxCell>
        <mxCell id="uVwZbVEdoKsYDZkxIZQF-39" value="id" style="shape=partialRectangle;overflow=hidden;connectable=0;fillColor=none;top=0;left=0;bottom=0;right=0;align=left;spacingLeft=6;fontStyle=1;fontFamily=Times New Roman;fontSize=14;strokeColor=default;" parent="uVwZbVEdoKsYDZkxIZQF-37" vertex="1">
          <mxGeometry x="30" width="220" height="30" as="geometry">
            <mxRectangle width="220" height="30" as="alternateBounds" />
          </mxGeometry>
        </mxCell>
        <mxCell id="uVwZbVEdoKsYDZkxIZQF-40" value="" style="shape=partialRectangle;collapsible=0;dropTarget=0;pointerEvents=0;fillColor=none;points=[[0,0.5],[1,0.5]];portConstraint=eastwest;top=0;left=0;right=0;bottom=0;fontFamily=Times New Roman;fontSize=14;fontStyle=1" parent="uVwZbVEdoKsYDZkxIZQF-36" vertex="1">
          <mxGeometry y="60" width="250" height="30" as="geometry" />
        </mxCell>
        <mxCell id="uVwZbVEdoKsYDZkxIZQF-41" value="" style="shape=partialRectangle;overflow=hidden;connectable=0;fillColor=none;top=0;left=0;bottom=1;right=0;fontFamily=Times New Roman;fontSize=14;fontStyle=1" parent="uVwZbVEdoKsYDZkxIZQF-40" vertex="1">
          <mxGeometry width="30" height="30" as="geometry">
            <mxRectangle width="30" height="30" as="alternateBounds" />
          </mxGeometry>
        </mxCell>
        <mxCell id="uVwZbVEdoKsYDZkxIZQF-42" value="username" style="shape=partialRectangle;overflow=hidden;connectable=0;fillColor=none;top=0;left=0;bottom=1;right=0;align=left;spacingLeft=6;fontFamily=Times New Roman;fontSize=14;fontStyle=1" parent="uVwZbVEdoKsYDZkxIZQF-40" vertex="1">
          <mxGeometry x="30" width="220" height="30" as="geometry">
            <mxRectangle width="220" height="30" as="alternateBounds" />
          </mxGeometry>
        </mxCell>
        <mxCell id="uVwZbVEdoKsYDZkxIZQF-43" style="shape=partialRectangle;collapsible=0;dropTarget=0;pointerEvents=0;fillColor=none;points=[[0,0.5],[1,0.5]];portConstraint=eastwest;top=0;left=0;right=0;bottom=0;fontFamily=Times New Roman;fontSize=14;fontStyle=1" parent="uVwZbVEdoKsYDZkxIZQF-36" vertex="1">
          <mxGeometry y="90" width="250" height="30" as="geometry" />
        </mxCell>
        <mxCell id="uVwZbVEdoKsYDZkxIZQF-44" style="shape=partialRectangle;overflow=hidden;connectable=0;fillColor=none;top=0;left=0;bottom=1;right=0;fontFamily=Times New Roman;fontSize=14;fontStyle=1" parent="uVwZbVEdoKsYDZkxIZQF-43" vertex="1">
          <mxGeometry width="30" height="30" as="geometry">
            <mxRectangle width="30" height="30" as="alternateBounds" />
          </mxGeometry>
        </mxCell>
        <mxCell id="uVwZbVEdoKsYDZkxIZQF-45" value="email" style="shape=partialRectangle;overflow=hidden;connectable=0;fillColor=none;top=0;left=0;bottom=1;right=0;align=left;spacingLeft=6;fontFamily=Times New Roman;fontSize=14;fontStyle=1" parent="uVwZbVEdoKsYDZkxIZQF-43" vertex="1">
          <mxGeometry x="30" width="220" height="30" as="geometry">
            <mxRectangle width="220" height="30" as="alternateBounds" />
          </mxGeometry>
        </mxCell>
        <mxCell id="uVwZbVEdoKsYDZkxIZQF-46" style="shape=partialRectangle;collapsible=0;dropTarget=0;pointerEvents=0;fillColor=none;points=[[0,0.5],[1,0.5]];portConstraint=eastwest;top=0;left=0;right=0;bottom=0;fontFamily=Times New Roman;fontSize=14;fontStyle=1" parent="uVwZbVEdoKsYDZkxIZQF-36" vertex="1">
          <mxGeometry y="120" width="250" height="30" as="geometry" />
        </mxCell>
        <mxCell id="uVwZbVEdoKsYDZkxIZQF-47" style="shape=partialRectangle;overflow=hidden;connectable=0;fillColor=none;top=0;left=0;bottom=1;right=0;fontFamily=Times New Roman;fontSize=14;fontStyle=1" parent="uVwZbVEdoKsYDZkxIZQF-46" vertex="1">
          <mxGeometry width="30" height="30" as="geometry">
            <mxRectangle width="30" height="30" as="alternateBounds" />
          </mxGeometry>
        </mxCell>
        <mxCell id="uVwZbVEdoKsYDZkxIZQF-48" value="password" style="shape=partialRectangle;overflow=hidden;connectable=0;fillColor=none;top=0;left=0;bottom=1;right=0;align=left;spacingLeft=6;fontFamily=Times New Roman;fontSize=14;fontStyle=1" parent="uVwZbVEdoKsYDZkxIZQF-46" vertex="1">
          <mxGeometry x="30" width="220" height="30" as="geometry">
            <mxRectangle width="220" height="30" as="alternateBounds" />
          </mxGeometry>
        </mxCell>
        <mxCell id="XtJwT1Z1h0Aw-hScrlLz-92" style="shape=partialRectangle;collapsible=0;dropTarget=0;pointerEvents=0;fillColor=none;points=[[0,0.5],[1,0.5]];portConstraint=eastwest;top=0;left=0;right=0;bottom=0;fontFamily=Times New Roman;fontSize=14;fontStyle=1" vertex="1" parent="uVwZbVEdoKsYDZkxIZQF-36">
          <mxGeometry y="150" width="250" height="30" as="geometry" />
        </mxCell>
        <mxCell id="XtJwT1Z1h0Aw-hScrlLz-93" style="shape=partialRectangle;overflow=hidden;connectable=0;fillColor=none;top=0;left=0;bottom=1;right=0;fontFamily=Times New Roman;fontSize=14;fontStyle=1" vertex="1" parent="XtJwT1Z1h0Aw-hScrlLz-92">
          <mxGeometry width="30" height="30" as="geometry">
            <mxRectangle width="30" height="30" as="alternateBounds" />
          </mxGeometry>
        </mxCell>
        <mxCell id="XtJwT1Z1h0Aw-hScrlLz-94" value="activation_code" style="shape=partialRectangle;overflow=hidden;connectable=0;fillColor=none;top=0;left=0;bottom=1;right=0;align=left;spacingLeft=6;fontFamily=Times New Roman;fontSize=14;fontStyle=1" vertex="1" parent="XtJwT1Z1h0Aw-hScrlLz-92">
          <mxGeometry x="30" width="220" height="30" as="geometry">
            <mxRectangle width="220" height="30" as="alternateBounds" />
          </mxGeometry>
        </mxCell>
        <mxCell id="XtJwT1Z1h0Aw-hScrlLz-89" style="shape=partialRectangle;collapsible=0;dropTarget=0;pointerEvents=0;fillColor=none;points=[[0,0.5],[1,0.5]];portConstraint=eastwest;top=0;left=0;right=0;bottom=0;fontFamily=Times New Roman;fontSize=14;fontStyle=1" vertex="1" parent="uVwZbVEdoKsYDZkxIZQF-36">
          <mxGeometry y="180" width="250" height="30" as="geometry" />
        </mxCell>
        <mxCell id="XtJwT1Z1h0Aw-hScrlLz-90" value="FK" style="shape=partialRectangle;overflow=hidden;connectable=0;fillColor=none;top=0;left=0;bottom=1;right=0;fontFamily=Times New Roman;fontSize=14;fontStyle=1" vertex="1" parent="XtJwT1Z1h0Aw-hScrlLz-89">
          <mxGeometry width="30" height="30" as="geometry">
            <mxRectangle width="30" height="30" as="alternateBounds" />
          </mxGeometry>
        </mxCell>
        <mxCell id="XtJwT1Z1h0Aw-hScrlLz-91" value="role_id" style="shape=partialRectangle;overflow=hidden;connectable=0;fillColor=none;top=0;left=0;bottom=1;right=0;align=left;spacingLeft=6;fontFamily=Times New Roman;fontSize=14;fontStyle=1" vertex="1" parent="XtJwT1Z1h0Aw-hScrlLz-89">
          <mxGeometry x="30" width="220" height="30" as="geometry">
            <mxRectangle width="220" height="30" as="alternateBounds" />
          </mxGeometry>
        </mxCell>
        <mxCell id="uVwZbVEdoKsYDZkxIZQF-100" value="tasks" style="shape=table;startSize=30;container=1;collapsible=1;childLayout=tableLayout;fixedRows=1;rowLines=0;fontStyle=1;align=center;resizeLast=1;fontFamily=Times New Roman;fontSize=14;bottom=1;" parent="1" vertex="1">
          <mxGeometry x="1150" y="330" width="250" height="300" as="geometry">
            <mxRectangle x="120" y="110" width="110" height="30" as="alternateBounds" />
          </mxGeometry>
        </mxCell>
        <mxCell id="uVwZbVEdoKsYDZkxIZQF-101" value="" style="shape=partialRectangle;collapsible=0;dropTarget=0;pointerEvents=0;fillColor=none;points=[[0,0.5],[1,0.5]];portConstraint=eastwest;top=0;left=0;right=0;bottom=1;fontFamily=Times New Roman;fontSize=14;fontStyle=1" parent="uVwZbVEdoKsYDZkxIZQF-100" vertex="1">
          <mxGeometry y="30" width="250" height="30" as="geometry" />
        </mxCell>
        <mxCell id="uVwZbVEdoKsYDZkxIZQF-102" value="PK" style="shape=partialRectangle;overflow=hidden;connectable=0;fillColor=none;top=0;left=0;bottom=0;right=0;fontStyle=1;fontFamily=Times New Roman;fontSize=14;" parent="uVwZbVEdoKsYDZkxIZQF-101" vertex="1">
          <mxGeometry width="30" height="30" as="geometry">
            <mxRectangle width="30" height="30" as="alternateBounds" />
          </mxGeometry>
        </mxCell>
        <mxCell id="uVwZbVEdoKsYDZkxIZQF-103" value="id" style="shape=partialRectangle;overflow=hidden;connectable=0;fillColor=none;top=0;left=0;bottom=0;right=0;align=left;spacingLeft=6;fontStyle=1;fontFamily=Times New Roman;fontSize=14;strokeColor=default;" parent="uVwZbVEdoKsYDZkxIZQF-101" vertex="1">
          <mxGeometry x="30" width="220" height="30" as="geometry">
            <mxRectangle width="220" height="30" as="alternateBounds" />
          </mxGeometry>
        </mxCell>
        <mxCell id="uVwZbVEdoKsYDZkxIZQF-104" value="" style="shape=partialRectangle;collapsible=0;dropTarget=0;pointerEvents=0;fillColor=none;points=[[0,0.5],[1,0.5]];portConstraint=eastwest;top=0;left=0;right=0;bottom=0;fontFamily=Times New Roman;fontSize=14;fontStyle=1" parent="uVwZbVEdoKsYDZkxIZQF-100" vertex="1">
          <mxGeometry y="60" width="250" height="30" as="geometry" />
        </mxCell>
        <mxCell id="uVwZbVEdoKsYDZkxIZQF-105" value="" style="shape=partialRectangle;overflow=hidden;connectable=0;fillColor=none;top=0;left=0;bottom=1;right=0;fontFamily=Times New Roman;fontSize=14;fontStyle=1" parent="uVwZbVEdoKsYDZkxIZQF-104" vertex="1">
          <mxGeometry width="30" height="30" as="geometry">
            <mxRectangle width="30" height="30" as="alternateBounds" />
          </mxGeometry>
        </mxCell>
        <mxCell id="uVwZbVEdoKsYDZkxIZQF-106" value="title" style="shape=partialRectangle;overflow=hidden;connectable=0;fillColor=none;top=0;left=0;bottom=1;right=0;align=left;spacingLeft=6;fontFamily=Times New Roman;fontSize=14;fontStyle=1" parent="uVwZbVEdoKsYDZkxIZQF-104" vertex="1">
          <mxGeometry x="30" width="220" height="30" as="geometry">
            <mxRectangle width="220" height="30" as="alternateBounds" />
          </mxGeometry>
        </mxCell>
        <mxCell id="uVwZbVEdoKsYDZkxIZQF-107" style="shape=partialRectangle;collapsible=0;dropTarget=0;pointerEvents=0;fillColor=none;points=[[0,0.5],[1,0.5]];portConstraint=eastwest;top=0;left=0;right=0;bottom=0;fontFamily=Times New Roman;fontSize=14;fontStyle=1" parent="uVwZbVEdoKsYDZkxIZQF-100" vertex="1">
          <mxGeometry y="90" width="250" height="30" as="geometry" />
        </mxCell>
        <mxCell id="uVwZbVEdoKsYDZkxIZQF-108" value="" style="shape=partialRectangle;overflow=hidden;connectable=0;fillColor=none;top=0;left=0;bottom=1;right=0;fontFamily=Times New Roman;fontSize=14;fontStyle=1" parent="uVwZbVEdoKsYDZkxIZQF-107" vertex="1">
          <mxGeometry width="30" height="30" as="geometry">
            <mxRectangle width="30" height="30" as="alternateBounds" />
          </mxGeometry>
        </mxCell>
        <mxCell id="uVwZbVEdoKsYDZkxIZQF-109" value="description" style="shape=partialRectangle;overflow=hidden;connectable=0;fillColor=none;top=0;left=0;bottom=1;right=0;align=left;spacingLeft=6;fontFamily=Times New Roman;fontSize=14;fontStyle=1" parent="uVwZbVEdoKsYDZkxIZQF-107" vertex="1">
          <mxGeometry x="30" width="220" height="30" as="geometry">
            <mxRectangle width="220" height="30" as="alternateBounds" />
          </mxGeometry>
        </mxCell>
        <mxCell id="uVwZbVEdoKsYDZkxIZQF-110" style="shape=partialRectangle;collapsible=0;dropTarget=0;pointerEvents=0;fillColor=none;points=[[0,0.5],[1,0.5]];portConstraint=eastwest;top=0;left=0;right=0;bottom=0;fontFamily=Times New Roman;fontSize=14;fontStyle=1" parent="uVwZbVEdoKsYDZkxIZQF-100" vertex="1">
          <mxGeometry y="120" width="250" height="30" as="geometry" />
        </mxCell>
        <mxCell id="uVwZbVEdoKsYDZkxIZQF-111" value="" style="shape=partialRectangle;overflow=hidden;connectable=0;fillColor=none;top=0;left=0;bottom=1;right=0;fontFamily=Times New Roman;fontSize=14;fontStyle=1" parent="uVwZbVEdoKsYDZkxIZQF-110" vertex="1">
          <mxGeometry width="30" height="30" as="geometry">
            <mxRectangle width="30" height="30" as="alternateBounds" />
          </mxGeometry>
        </mxCell>
        <mxCell id="uVwZbVEdoKsYDZkxIZQF-112" value="creation_time" style="shape=partialRectangle;overflow=hidden;connectable=0;fillColor=none;top=0;left=0;bottom=1;right=0;align=left;spacingLeft=6;fontFamily=Times New Roman;fontSize=14;fontStyle=1" parent="uVwZbVEdoKsYDZkxIZQF-110" vertex="1">
          <mxGeometry x="30" width="220" height="30" as="geometry">
            <mxRectangle width="220" height="30" as="alternateBounds" />
          </mxGeometry>
        </mxCell>
        <mxCell id="uVwZbVEdoKsYDZkxIZQF-113" style="shape=partialRectangle;collapsible=0;dropTarget=0;pointerEvents=0;fillColor=none;points=[[0,0.5],[1,0.5]];portConstraint=eastwest;top=0;left=0;right=0;bottom=0;fontFamily=Times New Roman;fontSize=14;fontStyle=1" parent="uVwZbVEdoKsYDZkxIZQF-100" vertex="1">
          <mxGeometry y="150" width="250" height="30" as="geometry" />
        </mxCell>
        <mxCell id="uVwZbVEdoKsYDZkxIZQF-114" value="" style="shape=partialRectangle;overflow=hidden;connectable=0;fillColor=none;top=0;left=0;bottom=1;right=0;fontFamily=Times New Roman;fontSize=14;fontStyle=1" parent="uVwZbVEdoKsYDZkxIZQF-113" vertex="1">
          <mxGeometry width="30" height="30" as="geometry">
            <mxRectangle width="30" height="30" as="alternateBounds" />
          </mxGeometry>
        </mxCell>
        <mxCell id="uVwZbVEdoKsYDZkxIZQF-115" value="solved_times" style="shape=partialRectangle;overflow=hidden;connectable=0;fillColor=none;top=0;left=0;bottom=1;right=0;align=left;spacingLeft=6;fontFamily=Times New Roman;fontSize=14;fontStyle=1" parent="uVwZbVEdoKsYDZkxIZQF-113" vertex="1">
          <mxGeometry x="30" width="220" height="30" as="geometry">
            <mxRectangle width="220" height="30" as="alternateBounds" />
          </mxGeometry>
        </mxCell>
        <mxCell id="XtJwT1Z1h0Aw-hScrlLz-37" style="shape=partialRectangle;collapsible=0;dropTarget=0;pointerEvents=0;fillColor=none;points=[[0,0.5],[1,0.5]];portConstraint=eastwest;top=0;left=0;right=0;bottom=0;fontFamily=Times New Roman;fontSize=14;fontStyle=1" vertex="1" parent="uVwZbVEdoKsYDZkxIZQF-100">
          <mxGeometry y="180" width="250" height="30" as="geometry" />
        </mxCell>
        <mxCell id="XtJwT1Z1h0Aw-hScrlLz-38" style="shape=partialRectangle;overflow=hidden;connectable=0;fillColor=none;top=0;left=0;bottom=1;right=0;fontFamily=Times New Roman;fontSize=14;fontStyle=1" vertex="1" parent="XtJwT1Z1h0Aw-hScrlLz-37">
          <mxGeometry width="30" height="30" as="geometry">
            <mxRectangle width="30" height="30" as="alternateBounds" />
          </mxGeometry>
        </mxCell>
        <mxCell id="XtJwT1Z1h0Aw-hScrlLz-39" value="solution" style="shape=partialRectangle;overflow=hidden;connectable=0;fillColor=none;top=0;left=0;bottom=1;right=0;align=left;spacingLeft=6;fontFamily=Times New Roman;fontSize=14;fontStyle=1" vertex="1" parent="XtJwT1Z1h0Aw-hScrlLz-37">
          <mxGeometry x="30" width="220" height="30" as="geometry">
            <mxRectangle width="220" height="30" as="alternateBounds" />
          </mxGeometry>
        </mxCell>
        <mxCell id="XtJwT1Z1h0Aw-hScrlLz-40" style="shape=partialRectangle;collapsible=0;dropTarget=0;pointerEvents=0;fillColor=none;points=[[0,0.5],[1,0.5]];portConstraint=eastwest;top=0;left=0;right=0;bottom=0;fontFamily=Times New Roman;fontSize=14;fontStyle=1" vertex="1" parent="uVwZbVEdoKsYDZkxIZQF-100">
          <mxGeometry y="210" width="250" height="30" as="geometry" />
        </mxCell>
        <mxCell id="XtJwT1Z1h0Aw-hScrlLz-41" style="shape=partialRectangle;overflow=hidden;connectable=0;fillColor=none;top=0;left=0;bottom=1;right=0;fontFamily=Times New Roman;fontSize=14;fontStyle=1" vertex="1" parent="XtJwT1Z1h0Aw-hScrlLz-40">
          <mxGeometry width="30" height="30" as="geometry">
            <mxRectangle width="30" height="30" as="alternateBounds" />
          </mxGeometry>
        </mxCell>
        <mxCell id="XtJwT1Z1h0Aw-hScrlLz-42" value="accepted" style="shape=partialRectangle;overflow=hidden;connectable=0;fillColor=none;top=0;left=0;bottom=1;right=0;align=left;spacingLeft=6;fontFamily=Times New Roman;fontSize=14;fontStyle=1" vertex="1" parent="XtJwT1Z1h0Aw-hScrlLz-40">
          <mxGeometry x="30" width="220" height="30" as="geometry">
            <mxRectangle width="220" height="30" as="alternateBounds" />
          </mxGeometry>
        </mxCell>
        <mxCell id="XtJwT1Z1h0Aw-hScrlLz-43" style="shape=partialRectangle;collapsible=0;dropTarget=0;pointerEvents=0;fillColor=none;points=[[0,0.5],[1,0.5]];portConstraint=eastwest;top=0;left=0;right=0;bottom=0;fontFamily=Times New Roman;fontSize=14;fontStyle=1" vertex="1" parent="uVwZbVEdoKsYDZkxIZQF-100">
          <mxGeometry y="240" width="250" height="30" as="geometry" />
        </mxCell>
        <mxCell id="XtJwT1Z1h0Aw-hScrlLz-44" value="FK" style="shape=partialRectangle;overflow=hidden;connectable=0;fillColor=none;top=0;left=0;bottom=1;right=0;fontFamily=Times New Roman;fontSize=14;fontStyle=1" vertex="1" parent="XtJwT1Z1h0Aw-hScrlLz-43">
          <mxGeometry width="30" height="30" as="geometry">
            <mxRectangle width="30" height="30" as="alternateBounds" />
          </mxGeometry>
        </mxCell>
        <mxCell id="XtJwT1Z1h0Aw-hScrlLz-45" value="complexity_id" style="shape=partialRectangle;overflow=hidden;connectable=0;fillColor=none;top=0;left=0;bottom=1;right=0;align=left;spacingLeft=6;fontFamily=Times New Roman;fontSize=14;fontStyle=1" vertex="1" parent="XtJwT1Z1h0Aw-hScrlLz-43">
          <mxGeometry x="30" width="220" height="30" as="geometry">
            <mxRectangle width="220" height="30" as="alternateBounds" />
          </mxGeometry>
        </mxCell>
        <mxCell id="XtJwT1Z1h0Aw-hScrlLz-59" style="shape=partialRectangle;collapsible=0;dropTarget=0;pointerEvents=0;fillColor=none;points=[[0,0.5],[1,0.5]];portConstraint=eastwest;top=0;left=0;right=0;bottom=0;fontFamily=Times New Roman;fontSize=14;fontStyle=1" vertex="1" parent="uVwZbVEdoKsYDZkxIZQF-100">
          <mxGeometry y="270" width="250" height="30" as="geometry" />
        </mxCell>
        <mxCell id="XtJwT1Z1h0Aw-hScrlLz-60" value="FK" style="shape=partialRectangle;overflow=hidden;connectable=0;fillColor=none;top=0;left=0;bottom=1;right=0;fontFamily=Times New Roman;fontSize=14;fontStyle=1" vertex="1" parent="XtJwT1Z1h0Aw-hScrlLz-59">
          <mxGeometry width="30" height="30" as="geometry">
            <mxRectangle width="30" height="30" as="alternateBounds" />
          </mxGeometry>
        </mxCell>
        <mxCell id="XtJwT1Z1h0Aw-hScrlLz-61" value="database_id" style="shape=partialRectangle;overflow=hidden;connectable=0;fillColor=none;top=0;left=0;bottom=1;right=0;align=left;spacingLeft=6;fontFamily=Times New Roman;fontSize=14;fontStyle=1" vertex="1" parent="XtJwT1Z1h0Aw-hScrlLz-59">
          <mxGeometry x="30" width="220" height="30" as="geometry">
            <mxRectangle width="220" height="30" as="alternateBounds" />
          </mxGeometry>
        </mxCell>
        <mxCell id="uVwZbVEdoKsYDZkxIZQF-167" style="edgeStyle=orthogonalEdgeStyle;rounded=0;orthogonalLoop=1;jettySize=auto;html=1;exitX=1;exitY=0.5;exitDx=0;exitDy=0;fontFamily=Garamond;fontSize=14;startArrow=open;startFill=0;endArrow=ERzeroToMany;endFill=0;entryX=1;entryY=0.5;entryDx=0;entryDy=0;" parent="1" source="uVwZbVEdoKsYDZkxIZQF-30" target="uVwZbVEdoKsYDZkxIZQF-55" edge="1">
          <mxGeometry relative="1" as="geometry">
            <mxPoint x="1130" y="480" as="targetPoint" />
            <Array as="points">
              <mxPoint x="1120" y="665" />
              <mxPoint x="1120" y="525" />
            </Array>
          </mxGeometry>
        </mxCell>
        <mxCell id="uVwZbVEdoKsYDZkxIZQF-467" value="task_complexities" style="shape=table;startSize=30;container=1;collapsible=1;childLayout=tableLayout;fixedRows=1;rowLines=0;fontStyle=1;align=center;resizeLast=1;fontFamily=Times New Roman;fontSize=14;bottom=1;" parent="1" vertex="1">
          <mxGeometry x="1460" y="380" width="250" height="90" as="geometry" />
        </mxCell>
        <mxCell id="uVwZbVEdoKsYDZkxIZQF-468" value="" style="shape=partialRectangle;collapsible=0;dropTarget=0;pointerEvents=0;fillColor=none;points=[[0,0.5],[1,0.5]];portConstraint=eastwest;top=0;left=0;right=0;bottom=1;fontFamily=Times New Roman;fontSize=14;fontStyle=1" parent="uVwZbVEdoKsYDZkxIZQF-467" vertex="1">
          <mxGeometry y="30" width="250" height="30" as="geometry" />
        </mxCell>
        <mxCell id="uVwZbVEdoKsYDZkxIZQF-469" value="PK" style="shape=partialRectangle;overflow=hidden;connectable=0;fillColor=none;top=0;left=0;bottom=0;right=0;fontStyle=1;fontFamily=Times New Roman;fontSize=14;" parent="uVwZbVEdoKsYDZkxIZQF-468" vertex="1">
          <mxGeometry width="30" height="30" as="geometry">
            <mxRectangle width="30" height="30" as="alternateBounds" />
          </mxGeometry>
        </mxCell>
        <mxCell id="uVwZbVEdoKsYDZkxIZQF-470" value="id" style="shape=partialRectangle;overflow=hidden;connectable=0;fillColor=none;top=0;left=0;bottom=0;right=0;align=left;spacingLeft=6;fontStyle=1;fontFamily=Times New Roman;fontSize=14;strokeColor=default;" parent="uVwZbVEdoKsYDZkxIZQF-468" vertex="1">
          <mxGeometry x="30" width="220" height="30" as="geometry">
            <mxRectangle width="220" height="30" as="alternateBounds" />
          </mxGeometry>
        </mxCell>
        <mxCell id="uVwZbVEdoKsYDZkxIZQF-471" value="" style="shape=partialRectangle;collapsible=0;dropTarget=0;pointerEvents=0;fillColor=none;points=[[0,0.5],[1,0.5]];portConstraint=eastwest;top=0;left=0;right=0;bottom=0;fontFamily=Times New Roman;fontSize=14;fontStyle=1" parent="uVwZbVEdoKsYDZkxIZQF-467" vertex="1">
          <mxGeometry y="60" width="250" height="30" as="geometry" />
        </mxCell>
        <mxCell id="uVwZbVEdoKsYDZkxIZQF-472" value="" style="shape=partialRectangle;overflow=hidden;connectable=0;fillColor=none;top=0;left=0;bottom=1;right=0;fontFamily=Times New Roman;fontSize=14;fontStyle=1" parent="uVwZbVEdoKsYDZkxIZQF-471" vertex="1">
          <mxGeometry width="30" height="30" as="geometry">
            <mxRectangle width="30" height="30" as="alternateBounds" />
          </mxGeometry>
        </mxCell>
        <mxCell id="uVwZbVEdoKsYDZkxIZQF-473" value="complexity" style="shape=partialRectangle;overflow=hidden;connectable=0;fillColor=none;top=0;left=0;bottom=1;right=0;align=left;spacingLeft=6;fontFamily=Times New Roman;fontSize=14;fontStyle=1" parent="uVwZbVEdoKsYDZkxIZQF-471" vertex="1">
          <mxGeometry x="30" width="220" height="30" as="geometry">
            <mxRectangle width="220" height="30" as="alternateBounds" />
          </mxGeometry>
        </mxCell>
        <mxCell id="uVwZbVEdoKsYDZkxIZQF-474" value="solutions" style="shape=table;startSize=30;container=1;collapsible=1;childLayout=tableLayout;fixedRows=1;rowLines=0;fontStyle=1;align=center;resizeLast=1;fontFamily=Times New Roman;fontSize=14;bottom=1;" parent="1" vertex="1">
          <mxGeometry x="1150" y="110" width="250" height="180" as="geometry">
            <mxRectangle x="120" y="110" width="110" height="30" as="alternateBounds" />
          </mxGeometry>
        </mxCell>
        <mxCell id="uVwZbVEdoKsYDZkxIZQF-475" value="" style="shape=partialRectangle;collapsible=0;dropTarget=0;pointerEvents=0;fillColor=none;points=[[0,0.5],[1,0.5]];portConstraint=eastwest;top=0;left=0;right=0;bottom=1;fontFamily=Times New Roman;fontSize=14;fontStyle=1" parent="uVwZbVEdoKsYDZkxIZQF-474" vertex="1">
          <mxGeometry y="30" width="250" height="30" as="geometry" />
        </mxCell>
        <mxCell id="uVwZbVEdoKsYDZkxIZQF-476" value="PK" style="shape=partialRectangle;overflow=hidden;connectable=0;fillColor=none;top=0;left=0;bottom=0;right=0;fontStyle=1;fontFamily=Times New Roman;fontSize=14;" parent="uVwZbVEdoKsYDZkxIZQF-475" vertex="1">
          <mxGeometry width="30" height="30" as="geometry">
            <mxRectangle width="30" height="30" as="alternateBounds" />
          </mxGeometry>
        </mxCell>
        <mxCell id="uVwZbVEdoKsYDZkxIZQF-477" value="id" style="shape=partialRectangle;overflow=hidden;connectable=0;fillColor=none;top=0;left=0;bottom=0;right=0;align=left;spacingLeft=6;fontStyle=1;fontFamily=Times New Roman;fontSize=14;strokeColor=default;" parent="uVwZbVEdoKsYDZkxIZQF-475" vertex="1">
          <mxGeometry x="30" width="220" height="30" as="geometry">
            <mxRectangle width="220" height="30" as="alternateBounds" />
          </mxGeometry>
        </mxCell>
        <mxCell id="uVwZbVEdoKsYDZkxIZQF-478" value="" style="shape=partialRectangle;collapsible=0;dropTarget=0;pointerEvents=0;fillColor=none;points=[[0,0.5],[1,0.5]];portConstraint=eastwest;top=0;left=0;right=0;bottom=0;fontFamily=Times New Roman;fontSize=14;fontStyle=1" parent="uVwZbVEdoKsYDZkxIZQF-474" vertex="1">
          <mxGeometry y="60" width="250" height="30" as="geometry" />
        </mxCell>
        <mxCell id="uVwZbVEdoKsYDZkxIZQF-479" value="FK" style="shape=partialRectangle;overflow=hidden;connectable=0;fillColor=none;top=0;left=0;bottom=1;right=0;fontFamily=Times New Roman;fontSize=14;fontStyle=1" parent="uVwZbVEdoKsYDZkxIZQF-478" vertex="1">
          <mxGeometry width="30" height="30" as="geometry">
            <mxRectangle width="30" height="30" as="alternateBounds" />
          </mxGeometry>
        </mxCell>
        <mxCell id="uVwZbVEdoKsYDZkxIZQF-480" value="user_id" style="shape=partialRectangle;overflow=hidden;connectable=0;fillColor=none;top=0;left=0;bottom=1;right=0;align=left;spacingLeft=6;fontFamily=Times New Roman;fontSize=14;fontStyle=1" parent="uVwZbVEdoKsYDZkxIZQF-478" vertex="1">
          <mxGeometry x="30" width="220" height="30" as="geometry">
            <mxRectangle width="220" height="30" as="alternateBounds" />
          </mxGeometry>
        </mxCell>
        <mxCell id="uVwZbVEdoKsYDZkxIZQF-481" style="shape=partialRectangle;collapsible=0;dropTarget=0;pointerEvents=0;fillColor=none;points=[[0,0.5],[1,0.5]];portConstraint=eastwest;top=0;left=0;right=0;bottom=0;fontFamily=Times New Roman;fontSize=14;fontStyle=1" parent="uVwZbVEdoKsYDZkxIZQF-474" vertex="1">
          <mxGeometry y="90" width="250" height="30" as="geometry" />
        </mxCell>
        <mxCell id="uVwZbVEdoKsYDZkxIZQF-482" value="FK" style="shape=partialRectangle;overflow=hidden;connectable=0;fillColor=none;top=0;left=0;bottom=1;right=0;fontFamily=Times New Roman;fontSize=14;fontStyle=1" parent="uVwZbVEdoKsYDZkxIZQF-481" vertex="1">
          <mxGeometry width="30" height="30" as="geometry">
            <mxRectangle width="30" height="30" as="alternateBounds" />
          </mxGeometry>
        </mxCell>
        <mxCell id="uVwZbVEdoKsYDZkxIZQF-483" value="task_id" style="shape=partialRectangle;overflow=hidden;connectable=0;fillColor=none;top=0;left=0;bottom=1;right=0;align=left;spacingLeft=6;fontFamily=Times New Roman;fontSize=14;fontStyle=1" parent="uVwZbVEdoKsYDZkxIZQF-481" vertex="1">
          <mxGeometry x="30" width="220" height="30" as="geometry">
            <mxRectangle width="220" height="30" as="alternateBounds" />
          </mxGeometry>
        </mxCell>
        <mxCell id="uVwZbVEdoKsYDZkxIZQF-484" style="shape=partialRectangle;collapsible=0;dropTarget=0;pointerEvents=0;fillColor=none;points=[[0,0.5],[1,0.5]];portConstraint=eastwest;top=0;left=0;right=0;bottom=0;fontFamily=Times New Roman;fontSize=14;fontStyle=1" parent="uVwZbVEdoKsYDZkxIZQF-474" vertex="1">
          <mxGeometry y="120" width="250" height="30" as="geometry" />
        </mxCell>
        <mxCell id="uVwZbVEdoKsYDZkxIZQF-485" value="" style="shape=partialRectangle;overflow=hidden;connectable=0;fillColor=none;top=0;left=0;bottom=1;right=0;fontFamily=Times New Roman;fontSize=14;fontStyle=1" parent="uVwZbVEdoKsYDZkxIZQF-484" vertex="1">
          <mxGeometry width="30" height="30" as="geometry">
            <mxRectangle width="30" height="30" as="alternateBounds" />
          </mxGeometry>
        </mxCell>
        <mxCell id="uVwZbVEdoKsYDZkxIZQF-486" value="query" style="shape=partialRectangle;overflow=hidden;connectable=0;fillColor=none;top=0;left=0;bottom=1;right=0;align=left;spacingLeft=6;fontFamily=Times New Roman;fontSize=14;fontStyle=1" parent="uVwZbVEdoKsYDZkxIZQF-484" vertex="1">
          <mxGeometry x="30" width="220" height="30" as="geometry">
            <mxRectangle width="220" height="30" as="alternateBounds" />
          </mxGeometry>
        </mxCell>
        <mxCell id="uVwZbVEdoKsYDZkxIZQF-487" style="shape=partialRectangle;collapsible=0;dropTarget=0;pointerEvents=0;fillColor=none;points=[[0,0.5],[1,0.5]];portConstraint=eastwest;top=0;left=0;right=0;bottom=0;fontFamily=Times New Roman;fontSize=14;fontStyle=1" parent="uVwZbVEdoKsYDZkxIZQF-474" vertex="1">
          <mxGeometry y="150" width="250" height="30" as="geometry" />
        </mxCell>
        <mxCell id="uVwZbVEdoKsYDZkxIZQF-488" style="shape=partialRectangle;overflow=hidden;connectable=0;fillColor=none;top=0;left=0;bottom=1;right=0;fontFamily=Times New Roman;fontSize=14;fontStyle=1" parent="uVwZbVEdoKsYDZkxIZQF-487" vertex="1">
          <mxGeometry width="30" height="30" as="geometry">
            <mxRectangle width="30" height="30" as="alternateBounds" />
          </mxGeometry>
        </mxCell>
        <mxCell id="uVwZbVEdoKsYDZkxIZQF-489" value="publision_time" style="shape=partialRectangle;overflow=hidden;connectable=0;fillColor=none;top=0;left=0;bottom=1;right=0;align=left;spacingLeft=6;fontFamily=Times New Roman;fontSize=14;fontStyle=1" parent="uVwZbVEdoKsYDZkxIZQF-487" vertex="1">
          <mxGeometry x="30" width="220" height="30" as="geometry">
            <mxRectangle width="220" height="30" as="alternateBounds" />
          </mxGeometry>
        </mxCell>
        <mxCell id="uVwZbVEdoKsYDZkxIZQF-493" value="statistics" style="shape=table;startSize=30;container=1;collapsible=1;childLayout=tableLayout;fixedRows=1;rowLines=0;fontStyle=1;align=center;resizeLast=1;fontFamily=Times New Roman;fontSize=14;bottom=1;" parent="1" vertex="1">
          <mxGeometry x="840" y="170" width="250" height="150" as="geometry">
            <mxRectangle x="120" y="110" width="110" height="30" as="alternateBounds" />
          </mxGeometry>
        </mxCell>
        <mxCell id="uVwZbVEdoKsYDZkxIZQF-494" value="" style="shape=partialRectangle;collapsible=0;dropTarget=0;pointerEvents=0;fillColor=none;points=[[0,0.5],[1,0.5]];portConstraint=eastwest;top=0;left=0;right=0;bottom=1;fontFamily=Times New Roman;fontSize=14;fontStyle=1" parent="uVwZbVEdoKsYDZkxIZQF-493" vertex="1">
          <mxGeometry y="30" width="250" height="30" as="geometry" />
        </mxCell>
        <mxCell id="uVwZbVEdoKsYDZkxIZQF-495" value="PK" style="shape=partialRectangle;overflow=hidden;connectable=0;fillColor=none;top=0;left=0;bottom=0;right=0;fontStyle=1;fontFamily=Times New Roman;fontSize=14;" parent="uVwZbVEdoKsYDZkxIZQF-494" vertex="1">
          <mxGeometry width="30" height="30" as="geometry">
            <mxRectangle width="30" height="30" as="alternateBounds" />
          </mxGeometry>
        </mxCell>
        <mxCell id="uVwZbVEdoKsYDZkxIZQF-496" value="id" style="shape=partialRectangle;overflow=hidden;connectable=0;fillColor=none;top=0;left=0;bottom=0;right=0;align=left;spacingLeft=6;fontStyle=1;fontFamily=Times New Roman;fontSize=14;strokeColor=default;" parent="uVwZbVEdoKsYDZkxIZQF-494" vertex="1">
          <mxGeometry x="30" width="220" height="30" as="geometry">
            <mxRectangle width="220" height="30" as="alternateBounds" />
          </mxGeometry>
        </mxCell>
        <mxCell id="uVwZbVEdoKsYDZkxIZQF-497" value="" style="shape=partialRectangle;collapsible=0;dropTarget=0;pointerEvents=0;fillColor=none;points=[[0,0.5],[1,0.5]];portConstraint=eastwest;top=0;left=0;right=0;bottom=0;fontFamily=Times New Roman;fontSize=14;fontStyle=1" parent="uVwZbVEdoKsYDZkxIZQF-493" vertex="1">
          <mxGeometry y="60" width="250" height="30" as="geometry" />
        </mxCell>
        <mxCell id="uVwZbVEdoKsYDZkxIZQF-498" value="FK" style="shape=partialRectangle;overflow=hidden;connectable=0;fillColor=none;top=0;left=0;bottom=1;right=0;fontFamily=Times New Roman;fontSize=14;fontStyle=1" parent="uVwZbVEdoKsYDZkxIZQF-497" vertex="1">
          <mxGeometry width="30" height="30" as="geometry">
            <mxRectangle width="30" height="30" as="alternateBounds" />
          </mxGeometry>
        </mxCell>
        <mxCell id="uVwZbVEdoKsYDZkxIZQF-499" value="user_id" style="shape=partialRectangle;overflow=hidden;connectable=0;fillColor=none;top=0;left=0;bottom=1;right=0;align=left;spacingLeft=6;fontFamily=Times New Roman;fontSize=14;fontStyle=1" parent="uVwZbVEdoKsYDZkxIZQF-497" vertex="1">
          <mxGeometry x="30" width="220" height="30" as="geometry">
            <mxRectangle width="220" height="30" as="alternateBounds" />
          </mxGeometry>
        </mxCell>
        <mxCell id="uVwZbVEdoKsYDZkxIZQF-500" style="shape=partialRectangle;collapsible=0;dropTarget=0;pointerEvents=0;fillColor=none;points=[[0,0.5],[1,0.5]];portConstraint=eastwest;top=0;left=0;right=0;bottom=0;fontFamily=Times New Roman;fontSize=14;fontStyle=1" parent="uVwZbVEdoKsYDZkxIZQF-493" vertex="1">
          <mxGeometry y="90" width="250" height="30" as="geometry" />
        </mxCell>
        <mxCell id="uVwZbVEdoKsYDZkxIZQF-501" style="shape=partialRectangle;overflow=hidden;connectable=0;fillColor=none;top=0;left=0;bottom=1;right=0;fontFamily=Times New Roman;fontSize=14;fontStyle=1" parent="uVwZbVEdoKsYDZkxIZQF-500" vertex="1">
          <mxGeometry width="30" height="30" as="geometry">
            <mxRectangle width="30" height="30" as="alternateBounds" />
          </mxGeometry>
        </mxCell>
        <mxCell id="uVwZbVEdoKsYDZkxIZQF-502" value="tasks_completed" style="shape=partialRectangle;overflow=hidden;connectable=0;fillColor=none;top=0;left=0;bottom=1;right=0;align=left;spacingLeft=6;fontFamily=Times New Roman;fontSize=14;fontStyle=1" parent="uVwZbVEdoKsYDZkxIZQF-500" vertex="1">
          <mxGeometry x="30" width="220" height="30" as="geometry">
            <mxRectangle width="220" height="30" as="alternateBounds" />
          </mxGeometry>
        </mxCell>
        <mxCell id="uVwZbVEdoKsYDZkxIZQF-503" style="shape=partialRectangle;collapsible=0;dropTarget=0;pointerEvents=0;fillColor=none;points=[[0,0.5],[1,0.5]];portConstraint=eastwest;top=0;left=0;right=0;bottom=0;fontFamily=Times New Roman;fontSize=14;fontStyle=1" parent="uVwZbVEdoKsYDZkxIZQF-493" vertex="1">
          <mxGeometry y="120" width="250" height="30" as="geometry" />
        </mxCell>
        <mxCell id="uVwZbVEdoKsYDZkxIZQF-504" style="shape=partialRectangle;overflow=hidden;connectable=0;fillColor=none;top=0;left=0;bottom=1;right=0;fontFamily=Times New Roman;fontSize=14;fontStyle=1" parent="uVwZbVEdoKsYDZkxIZQF-503" vertex="1">
          <mxGeometry width="30" height="30" as="geometry">
            <mxRectangle width="30" height="30" as="alternateBounds" />
          </mxGeometry>
        </mxCell>
        <mxCell id="uVwZbVEdoKsYDZkxIZQF-505" value="score" style="shape=partialRectangle;overflow=hidden;connectable=0;fillColor=none;top=0;left=0;bottom=1;right=0;align=left;spacingLeft=6;fontFamily=Times New Roman;fontSize=14;fontStyle=1" parent="uVwZbVEdoKsYDZkxIZQF-503" vertex="1">
          <mxGeometry x="30" width="220" height="30" as="geometry">
            <mxRectangle width="220" height="30" as="alternateBounds" />
          </mxGeometry>
        </mxCell>
        <mxCell id="uVwZbVEdoKsYDZkxIZQF-509" value="discussions" style="shape=table;startSize=30;container=1;collapsible=1;childLayout=tableLayout;fixedRows=1;rowLines=0;fontStyle=1;align=center;resizeLast=1;fontFamily=Times New Roman;fontSize=14;bottom=1;" parent="1" vertex="1">
          <mxGeometry x="1460" y="700" width="250" height="90" as="geometry">
            <mxRectangle x="120" y="110" width="110" height="30" as="alternateBounds" />
          </mxGeometry>
        </mxCell>
        <mxCell id="uVwZbVEdoKsYDZkxIZQF-510" value="" style="shape=partialRectangle;collapsible=0;dropTarget=0;pointerEvents=0;fillColor=none;points=[[0,0.5],[1,0.5]];portConstraint=eastwest;top=0;left=0;right=0;bottom=1;fontFamily=Times New Roman;fontSize=14;fontStyle=1" parent="uVwZbVEdoKsYDZkxIZQF-509" vertex="1">
          <mxGeometry y="30" width="250" height="30" as="geometry" />
        </mxCell>
        <mxCell id="uVwZbVEdoKsYDZkxIZQF-511" value="PK" style="shape=partialRectangle;overflow=hidden;connectable=0;fillColor=none;top=0;left=0;bottom=0;right=0;fontStyle=1;fontFamily=Times New Roman;fontSize=14;" parent="uVwZbVEdoKsYDZkxIZQF-510" vertex="1">
          <mxGeometry width="30" height="30" as="geometry">
            <mxRectangle width="30" height="30" as="alternateBounds" />
          </mxGeometry>
        </mxCell>
        <mxCell id="uVwZbVEdoKsYDZkxIZQF-512" value="id" style="shape=partialRectangle;overflow=hidden;connectable=0;fillColor=none;top=0;left=0;bottom=0;right=0;align=left;spacingLeft=6;fontStyle=1;fontFamily=Times New Roman;fontSize=14;strokeColor=default;" parent="uVwZbVEdoKsYDZkxIZQF-510" vertex="1">
          <mxGeometry x="30" width="220" height="30" as="geometry">
            <mxRectangle width="220" height="30" as="alternateBounds" />
          </mxGeometry>
        </mxCell>
        <mxCell id="uVwZbVEdoKsYDZkxIZQF-513" value="" style="shape=partialRectangle;collapsible=0;dropTarget=0;pointerEvents=0;fillColor=none;points=[[0,0.5],[1,0.5]];portConstraint=eastwest;top=0;left=0;right=0;bottom=0;fontFamily=Times New Roman;fontSize=14;fontStyle=1" parent="uVwZbVEdoKsYDZkxIZQF-509" vertex="1">
          <mxGeometry y="60" width="250" height="30" as="geometry" />
        </mxCell>
        <mxCell id="uVwZbVEdoKsYDZkxIZQF-514" value="" style="shape=partialRectangle;overflow=hidden;connectable=0;fillColor=none;top=0;left=0;bottom=1;right=0;fontFamily=Times New Roman;fontSize=14;fontStyle=1" parent="uVwZbVEdoKsYDZkxIZQF-513" vertex="1">
          <mxGeometry width="30" height="30" as="geometry">
            <mxRectangle width="30" height="30" as="alternateBounds" />
          </mxGeometry>
        </mxCell>
        <mxCell id="uVwZbVEdoKsYDZkxIZQF-515" value="topic" style="shape=partialRectangle;overflow=hidden;connectable=0;fillColor=none;top=0;left=0;bottom=1;right=0;align=left;spacingLeft=6;fontFamily=Times New Roman;fontSize=14;fontStyle=1" parent="uVwZbVEdoKsYDZkxIZQF-513" vertex="1">
          <mxGeometry x="30" width="220" height="30" as="geometry">
            <mxRectangle width="220" height="30" as="alternateBounds" />
          </mxGeometry>
        </mxCell>
        <mxCell id="uVwZbVEdoKsYDZkxIZQF-528" value="messages" style="shape=table;startSize=30;container=1;collapsible=1;childLayout=tableLayout;fixedRows=1;rowLines=0;fontStyle=1;align=center;resizeLast=1;fontFamily=Times New Roman;fontSize=14;bottom=1;" parent="1" vertex="1">
          <mxGeometry x="1150" y="670" width="250" height="120" as="geometry">
            <mxRectangle x="120" y="110" width="110" height="30" as="alternateBounds" />
          </mxGeometry>
        </mxCell>
        <mxCell id="uVwZbVEdoKsYDZkxIZQF-529" value="" style="shape=partialRectangle;collapsible=0;dropTarget=0;pointerEvents=0;fillColor=none;points=[[0,0.5],[1,0.5]];portConstraint=eastwest;top=0;left=0;right=0;bottom=1;fontFamily=Times New Roman;fontSize=14;fontStyle=1" parent="uVwZbVEdoKsYDZkxIZQF-528" vertex="1">
          <mxGeometry y="30" width="250" height="30" as="geometry" />
        </mxCell>
        <mxCell id="uVwZbVEdoKsYDZkxIZQF-530" value="PK" style="shape=partialRectangle;overflow=hidden;connectable=0;fillColor=none;top=0;left=0;bottom=0;right=0;fontStyle=1;fontFamily=Times New Roman;fontSize=14;" parent="uVwZbVEdoKsYDZkxIZQF-529" vertex="1">
          <mxGeometry width="30" height="30" as="geometry">
            <mxRectangle width="30" height="30" as="alternateBounds" />
          </mxGeometry>
        </mxCell>
        <mxCell id="uVwZbVEdoKsYDZkxIZQF-531" value="id" style="shape=partialRectangle;overflow=hidden;connectable=0;fillColor=none;top=0;left=0;bottom=0;right=0;align=left;spacingLeft=6;fontStyle=1;fontFamily=Times New Roman;fontSize=14;strokeColor=default;" parent="uVwZbVEdoKsYDZkxIZQF-529" vertex="1">
          <mxGeometry x="30" width="220" height="30" as="geometry">
            <mxRectangle width="220" height="30" as="alternateBounds" />
          </mxGeometry>
        </mxCell>
        <mxCell id="uVwZbVEdoKsYDZkxIZQF-532" value="" style="shape=partialRectangle;collapsible=0;dropTarget=0;pointerEvents=0;fillColor=none;points=[[0,0.5],[1,0.5]];portConstraint=eastwest;top=0;left=0;right=0;bottom=0;fontFamily=Times New Roman;fontSize=14;fontStyle=1" parent="uVwZbVEdoKsYDZkxIZQF-528" vertex="1">
          <mxGeometry y="60" width="250" height="30" as="geometry" />
        </mxCell>
        <mxCell id="uVwZbVEdoKsYDZkxIZQF-533" value="FK" style="shape=partialRectangle;overflow=hidden;connectable=0;fillColor=none;top=0;left=0;bottom=1;right=0;fontFamily=Times New Roman;fontSize=14;fontStyle=1" parent="uVwZbVEdoKsYDZkxIZQF-532" vertex="1">
          <mxGeometry width="30" height="30" as="geometry">
            <mxRectangle width="30" height="30" as="alternateBounds" />
          </mxGeometry>
        </mxCell>
        <mxCell id="uVwZbVEdoKsYDZkxIZQF-534" value="user_id" style="shape=partialRectangle;overflow=hidden;connectable=0;fillColor=none;top=0;left=0;bottom=1;right=0;align=left;spacingLeft=6;fontFamily=Times New Roman;fontSize=14;fontStyle=1" parent="uVwZbVEdoKsYDZkxIZQF-532" vertex="1">
          <mxGeometry x="30" width="220" height="30" as="geometry">
            <mxRectangle width="220" height="30" as="alternateBounds" />
          </mxGeometry>
        </mxCell>
        <mxCell id="uVwZbVEdoKsYDZkxIZQF-535" style="shape=partialRectangle;collapsible=0;dropTarget=0;pointerEvents=0;fillColor=none;points=[[0,0.5],[1,0.5]];portConstraint=eastwest;top=0;left=0;right=0;bottom=0;fontFamily=Times New Roman;fontSize=14;fontStyle=1" parent="uVwZbVEdoKsYDZkxIZQF-528" vertex="1">
          <mxGeometry y="90" width="250" height="30" as="geometry" />
        </mxCell>
        <mxCell id="uVwZbVEdoKsYDZkxIZQF-536" value="FK" style="shape=partialRectangle;overflow=hidden;connectable=0;fillColor=none;top=0;left=0;bottom=1;right=0;fontFamily=Times New Roman;fontSize=14;fontStyle=1" parent="uVwZbVEdoKsYDZkxIZQF-535" vertex="1">
          <mxGeometry width="30" height="30" as="geometry">
            <mxRectangle width="30" height="30" as="alternateBounds" />
          </mxGeometry>
        </mxCell>
        <mxCell id="uVwZbVEdoKsYDZkxIZQF-537" value="discussion_id" style="shape=partialRectangle;overflow=hidden;connectable=0;fillColor=none;top=0;left=0;bottom=1;right=0;align=left;spacingLeft=6;fontFamily=Times New Roman;fontSize=14;fontStyle=1" parent="uVwZbVEdoKsYDZkxIZQF-535" vertex="1">
          <mxGeometry x="30" width="220" height="30" as="geometry">
            <mxRectangle width="220" height="30" as="alternateBounds" />
          </mxGeometry>
        </mxCell>
        <mxCell id="uVwZbVEdoKsYDZkxIZQF-544" style="edgeStyle=orthogonalEdgeStyle;rounded=0;orthogonalLoop=1;jettySize=auto;html=1;exitX=0;exitY=0.5;exitDx=0;exitDy=0;entryX=0;entryY=0.5;entryDx=0;entryDy=0;fontFamily=Times New Roman;fontSize=14;startArrow=open;startFill=0;endArrow=ERzeroToMany;endFill=0;" parent="1" source="uVwZbVEdoKsYDZkxIZQF-37" target="uVwZbVEdoKsYDZkxIZQF-497" edge="1">
          <mxGeometry relative="1" as="geometry">
            <mxPoint x="1110" y="535" as="sourcePoint" />
            <mxPoint x="1110" y="635" as="targetPoint" />
          </mxGeometry>
        </mxCell>
        <mxCell id="uVwZbVEdoKsYDZkxIZQF-1011" style="edgeStyle=orthogonalEdgeStyle;rounded=0;orthogonalLoop=1;jettySize=auto;html=1;exitX=1;exitY=0.5;exitDx=0;exitDy=0;entryX=0;entryY=0.5;entryDx=0;entryDy=0;fontFamily=Times New Roman;fontSize=14;startArrow=open;startFill=0;endArrow=ERzeroToMany;endFill=0;" parent="1" source="uVwZbVEdoKsYDZkxIZQF-37" target="uVwZbVEdoKsYDZkxIZQF-478" edge="1">
          <mxGeometry relative="1" as="geometry">
            <mxPoint x="1120" y="310" as="sourcePoint" />
            <mxPoint x="1120" y="150" as="targetPoint" />
            <Array as="points">
              <mxPoint x="1110" y="405" />
              <mxPoint x="1110" y="185" />
            </Array>
          </mxGeometry>
        </mxCell>
        <mxCell id="uVwZbVEdoKsYDZkxIZQF-1012" style="edgeStyle=orthogonalEdgeStyle;rounded=0;orthogonalLoop=1;jettySize=auto;html=1;exitX=0;exitY=0.5;exitDx=0;exitDy=0;entryX=0;entryY=0.5;entryDx=0;entryDy=0;fontFamily=Times New Roman;fontSize=14;startArrow=open;startFill=0;endArrow=ERzeroToMany;endFill=0;" parent="1" source="uVwZbVEdoKsYDZkxIZQF-101" target="uVwZbVEdoKsYDZkxIZQF-481" edge="1">
          <mxGeometry relative="1" as="geometry">
            <mxPoint x="1110" y="415" as="sourcePoint" />
            <mxPoint x="1160" y="195" as="targetPoint" />
            <Array as="points">
              <mxPoint x="1130" y="375" />
              <mxPoint x="1130" y="215" />
            </Array>
          </mxGeometry>
        </mxCell>
        <mxCell id="uVwZbVEdoKsYDZkxIZQF-1015" style="edgeStyle=orthogonalEdgeStyle;rounded=0;orthogonalLoop=1;jettySize=auto;html=1;exitX=1;exitY=0.5;exitDx=0;exitDy=0;fontFamily=Times New Roman;fontSize=14;startArrow=open;startFill=0;endArrow=ERzeroToMany;endFill=0;entryX=0;entryY=0.5;entryDx=0;entryDy=0;" parent="1" source="uVwZbVEdoKsYDZkxIZQF-37" target="uVwZbVEdoKsYDZkxIZQF-532" edge="1">
          <mxGeometry relative="1" as="geometry">
            <mxPoint x="1110" y="635" as="sourcePoint" />
            <mxPoint x="1110" y="535" as="targetPoint" />
            <Array as="points">
              <mxPoint x="1130" y="405" />
              <mxPoint x="1130" y="745" />
            </Array>
          </mxGeometry>
        </mxCell>
        <mxCell id="uVwZbVEdoKsYDZkxIZQF-1016" style="edgeStyle=orthogonalEdgeStyle;rounded=0;orthogonalLoop=1;jettySize=auto;html=1;exitX=0;exitY=0.5;exitDx=0;exitDy=0;fontFamily=Times New Roman;fontSize=14;startArrow=open;startFill=0;endArrow=ERzeroToMany;endFill=0;entryX=1;entryY=0.5;entryDx=0;entryDy=0;" parent="1" source="uVwZbVEdoKsYDZkxIZQF-510" target="uVwZbVEdoKsYDZkxIZQF-535" edge="1">
          <mxGeometry relative="1" as="geometry">
            <mxPoint x="1110" y="635" as="sourcePoint" />
            <mxPoint x="1490" y="720" as="targetPoint" />
            <Array as="points">
              <mxPoint x="1426" y="745" />
              <mxPoint x="1426" y="775" />
            </Array>
          </mxGeometry>
        </mxCell>
        <mxCell id="XtJwT1Z1h0Aw-hScrlLz-46" value="databases" style="shape=table;startSize=30;container=1;collapsible=1;childLayout=tableLayout;fixedRows=1;rowLines=0;fontStyle=1;align=center;resizeLast=1;fontFamily=Times New Roman;fontSize=14;bottom=1;" vertex="1" parent="1">
          <mxGeometry x="1460" y="510" width="250" height="120" as="geometry">
            <mxRectangle x="120" y="110" width="110" height="30" as="alternateBounds" />
          </mxGeometry>
        </mxCell>
        <mxCell id="XtJwT1Z1h0Aw-hScrlLz-47" value="" style="shape=partialRectangle;collapsible=0;dropTarget=0;pointerEvents=0;fillColor=none;points=[[0,0.5],[1,0.5]];portConstraint=eastwest;top=0;left=0;right=0;bottom=1;fontFamily=Times New Roman;fontSize=14;fontStyle=1" vertex="1" parent="XtJwT1Z1h0Aw-hScrlLz-46">
          <mxGeometry y="30" width="250" height="30" as="geometry" />
        </mxCell>
        <mxCell id="XtJwT1Z1h0Aw-hScrlLz-48" value="PK" style="shape=partialRectangle;overflow=hidden;connectable=0;fillColor=none;top=0;left=0;bottom=0;right=0;fontStyle=1;fontFamily=Times New Roman;fontSize=14;" vertex="1" parent="XtJwT1Z1h0Aw-hScrlLz-47">
          <mxGeometry width="30" height="30" as="geometry">
            <mxRectangle width="30" height="30" as="alternateBounds" />
          </mxGeometry>
        </mxCell>
        <mxCell id="XtJwT1Z1h0Aw-hScrlLz-49" value="id" style="shape=partialRectangle;overflow=hidden;connectable=0;fillColor=none;top=0;left=0;bottom=0;right=0;align=left;spacingLeft=6;fontStyle=1;fontFamily=Times New Roman;fontSize=14;strokeColor=default;" vertex="1" parent="XtJwT1Z1h0Aw-hScrlLz-47">
          <mxGeometry x="30" width="220" height="30" as="geometry">
            <mxRectangle width="220" height="30" as="alternateBounds" />
          </mxGeometry>
        </mxCell>
        <mxCell id="XtJwT1Z1h0Aw-hScrlLz-50" value="" style="shape=partialRectangle;collapsible=0;dropTarget=0;pointerEvents=0;fillColor=none;points=[[0,0.5],[1,0.5]];portConstraint=eastwest;top=0;left=0;right=0;bottom=0;fontFamily=Times New Roman;fontSize=14;fontStyle=1" vertex="1" parent="XtJwT1Z1h0Aw-hScrlLz-46">
          <mxGeometry y="60" width="250" height="30" as="geometry" />
        </mxCell>
        <mxCell id="XtJwT1Z1h0Aw-hScrlLz-51" value="" style="shape=partialRectangle;overflow=hidden;connectable=0;fillColor=none;top=0;left=0;bottom=1;right=0;fontFamily=Times New Roman;fontSize=14;fontStyle=1" vertex="1" parent="XtJwT1Z1h0Aw-hScrlLz-50">
          <mxGeometry width="30" height="30" as="geometry">
            <mxRectangle width="30" height="30" as="alternateBounds" />
          </mxGeometry>
        </mxCell>
        <mxCell id="XtJwT1Z1h0Aw-hScrlLz-52" value="name" style="shape=partialRectangle;overflow=hidden;connectable=0;fillColor=none;top=0;left=0;bottom=1;right=0;align=left;spacingLeft=6;fontFamily=Times New Roman;fontSize=14;fontStyle=1" vertex="1" parent="XtJwT1Z1h0Aw-hScrlLz-50">
          <mxGeometry x="30" width="220" height="30" as="geometry">
            <mxRectangle width="220" height="30" as="alternateBounds" />
          </mxGeometry>
        </mxCell>
        <mxCell id="XtJwT1Z1h0Aw-hScrlLz-53" style="shape=partialRectangle;collapsible=0;dropTarget=0;pointerEvents=0;fillColor=none;points=[[0,0.5],[1,0.5]];portConstraint=eastwest;top=0;left=0;right=0;bottom=0;fontFamily=Times New Roman;fontSize=14;fontStyle=1" vertex="1" parent="XtJwT1Z1h0Aw-hScrlLz-46">
          <mxGeometry y="90" width="250" height="30" as="geometry" />
        </mxCell>
        <mxCell id="XtJwT1Z1h0Aw-hScrlLz-54" style="shape=partialRectangle;overflow=hidden;connectable=0;fillColor=none;top=0;left=0;bottom=1;right=0;fontFamily=Times New Roman;fontSize=14;fontStyle=1" vertex="1" parent="XtJwT1Z1h0Aw-hScrlLz-53">
          <mxGeometry width="30" height="30" as="geometry">
            <mxRectangle width="30" height="30" as="alternateBounds" />
          </mxGeometry>
        </mxCell>
        <mxCell id="XtJwT1Z1h0Aw-hScrlLz-55" value="image_path" style="shape=partialRectangle;overflow=hidden;connectable=0;fillColor=none;top=0;left=0;bottom=1;right=0;align=left;spacingLeft=6;fontFamily=Times New Roman;fontSize=14;fontStyle=1" vertex="1" parent="XtJwT1Z1h0Aw-hScrlLz-53">
          <mxGeometry x="30" width="220" height="30" as="geometry">
            <mxRectangle width="220" height="30" as="alternateBounds" />
          </mxGeometry>
        </mxCell>
        <mxCell id="XtJwT1Z1h0Aw-hScrlLz-62" style="edgeStyle=orthogonalEdgeStyle;rounded=0;orthogonalLoop=1;jettySize=auto;html=1;exitX=0;exitY=0.5;exitDx=0;exitDy=0;fontFamily=Times New Roman;fontSize=14;startArrow=open;startFill=0;endArrow=ERzeroToMany;endFill=0;entryX=1;entryY=0.5;entryDx=0;entryDy=0;" edge="1" parent="1" source="XtJwT1Z1h0Aw-hScrlLz-47" target="XtJwT1Z1h0Aw-hScrlLz-59">
          <mxGeometry relative="1" as="geometry">
            <mxPoint x="1460" y="635" as="sourcePoint" />
            <mxPoint x="1410" y="785" as="targetPoint" />
            <Array as="points">
              <mxPoint x="1440" y="555" />
              <mxPoint x="1440" y="615" />
            </Array>
          </mxGeometry>
        </mxCell>
        <mxCell id="XtJwT1Z1h0Aw-hScrlLz-63" style="edgeStyle=orthogonalEdgeStyle;rounded=0;orthogonalLoop=1;jettySize=auto;html=1;exitX=0;exitY=0.5;exitDx=0;exitDy=0;fontFamily=Times New Roman;fontSize=14;startArrow=open;startFill=0;endArrow=ERzeroToMany;endFill=0;entryX=1;entryY=0.5;entryDx=0;entryDy=0;" edge="1" parent="1" source="uVwZbVEdoKsYDZkxIZQF-468" target="XtJwT1Z1h0Aw-hScrlLz-43">
          <mxGeometry relative="1" as="geometry">
            <mxPoint x="1440" y="440" as="sourcePoint" />
            <mxPoint x="1410" y="590" as="targetPoint" />
            <Array as="points">
              <mxPoint x="1430" y="425" />
              <mxPoint x="1430" y="585" />
            </Array>
          </mxGeometry>
        </mxCell>
        <mxCell id="XtJwT1Z1h0Aw-hScrlLz-64" value="comments" style="shape=table;startSize=30;container=1;collapsible=1;childLayout=tableLayout;fixedRows=1;rowLines=0;fontStyle=1;align=center;resizeLast=1;fontFamily=Times New Roman;fontSize=14;bottom=1;" vertex="1" parent="1">
          <mxGeometry x="1460" y="110" width="250" height="210" as="geometry">
            <mxRectangle x="120" y="110" width="110" height="30" as="alternateBounds" />
          </mxGeometry>
        </mxCell>
        <mxCell id="XtJwT1Z1h0Aw-hScrlLz-65" value="" style="shape=partialRectangle;collapsible=0;dropTarget=0;pointerEvents=0;fillColor=none;points=[[0,0.5],[1,0.5]];portConstraint=eastwest;top=0;left=0;right=0;bottom=1;fontFamily=Times New Roman;fontSize=14;fontStyle=1" vertex="1" parent="XtJwT1Z1h0Aw-hScrlLz-64">
          <mxGeometry y="30" width="250" height="30" as="geometry" />
        </mxCell>
        <mxCell id="XtJwT1Z1h0Aw-hScrlLz-66" value="PK" style="shape=partialRectangle;overflow=hidden;connectable=0;fillColor=none;top=0;left=0;bottom=0;right=0;fontStyle=1;fontFamily=Times New Roman;fontSize=14;" vertex="1" parent="XtJwT1Z1h0Aw-hScrlLz-65">
          <mxGeometry width="30" height="30" as="geometry">
            <mxRectangle width="30" height="30" as="alternateBounds" />
          </mxGeometry>
        </mxCell>
        <mxCell id="XtJwT1Z1h0Aw-hScrlLz-67" value="id" style="shape=partialRectangle;overflow=hidden;connectable=0;fillColor=none;top=0;left=0;bottom=0;right=0;align=left;spacingLeft=6;fontStyle=1;fontFamily=Times New Roman;fontSize=14;strokeColor=default;" vertex="1" parent="XtJwT1Z1h0Aw-hScrlLz-65">
          <mxGeometry x="30" width="220" height="30" as="geometry">
            <mxRectangle width="220" height="30" as="alternateBounds" />
          </mxGeometry>
        </mxCell>
        <mxCell id="XtJwT1Z1h0Aw-hScrlLz-68" value="" style="shape=partialRectangle;collapsible=0;dropTarget=0;pointerEvents=0;fillColor=none;points=[[0,0.5],[1,0.5]];portConstraint=eastwest;top=0;left=0;right=0;bottom=0;fontFamily=Times New Roman;fontSize=14;fontStyle=1" vertex="1" parent="XtJwT1Z1h0Aw-hScrlLz-64">
          <mxGeometry y="60" width="250" height="30" as="geometry" />
        </mxCell>
        <mxCell id="XtJwT1Z1h0Aw-hScrlLz-69" value="FK" style="shape=partialRectangle;overflow=hidden;connectable=0;fillColor=none;top=0;left=0;bottom=1;right=0;fontFamily=Times New Roman;fontSize=14;fontStyle=1" vertex="1" parent="XtJwT1Z1h0Aw-hScrlLz-68">
          <mxGeometry width="30" height="30" as="geometry">
            <mxRectangle width="30" height="30" as="alternateBounds" />
          </mxGeometry>
        </mxCell>
        <mxCell id="XtJwT1Z1h0Aw-hScrlLz-70" value="user_id" style="shape=partialRectangle;overflow=hidden;connectable=0;fillColor=none;top=0;left=0;bottom=1;right=0;align=left;spacingLeft=6;fontFamily=Times New Roman;fontSize=14;fontStyle=1" vertex="1" parent="XtJwT1Z1h0Aw-hScrlLz-68">
          <mxGeometry x="30" width="220" height="30" as="geometry">
            <mxRectangle width="220" height="30" as="alternateBounds" />
          </mxGeometry>
        </mxCell>
        <mxCell id="XtJwT1Z1h0Aw-hScrlLz-71" style="shape=partialRectangle;collapsible=0;dropTarget=0;pointerEvents=0;fillColor=none;points=[[0,0.5],[1,0.5]];portConstraint=eastwest;top=0;left=0;right=0;bottom=0;fontFamily=Times New Roman;fontSize=14;fontStyle=1" vertex="1" parent="XtJwT1Z1h0Aw-hScrlLz-64">
          <mxGeometry y="90" width="250" height="30" as="geometry" />
        </mxCell>
        <mxCell id="XtJwT1Z1h0Aw-hScrlLz-72" value="FK" style="shape=partialRectangle;overflow=hidden;connectable=0;fillColor=none;top=0;left=0;bottom=1;right=0;fontFamily=Times New Roman;fontSize=14;fontStyle=1" vertex="1" parent="XtJwT1Z1h0Aw-hScrlLz-71">
          <mxGeometry width="30" height="30" as="geometry">
            <mxRectangle width="30" height="30" as="alternateBounds" />
          </mxGeometry>
        </mxCell>
        <mxCell id="XtJwT1Z1h0Aw-hScrlLz-73" value="task_id" style="shape=partialRectangle;overflow=hidden;connectable=0;fillColor=none;top=0;left=0;bottom=1;right=0;align=left;spacingLeft=6;fontFamily=Times New Roman;fontSize=14;fontStyle=1" vertex="1" parent="XtJwT1Z1h0Aw-hScrlLz-71">
          <mxGeometry x="30" width="220" height="30" as="geometry">
            <mxRectangle width="220" height="30" as="alternateBounds" />
          </mxGeometry>
        </mxCell>
        <mxCell id="XtJwT1Z1h0Aw-hScrlLz-74" style="shape=partialRectangle;collapsible=0;dropTarget=0;pointerEvents=0;fillColor=none;points=[[0,0.5],[1,0.5]];portConstraint=eastwest;top=0;left=0;right=0;bottom=0;fontFamily=Times New Roman;fontSize=14;fontStyle=1" vertex="1" parent="XtJwT1Z1h0Aw-hScrlLz-64">
          <mxGeometry y="120" width="250" height="30" as="geometry" />
        </mxCell>
        <mxCell id="XtJwT1Z1h0Aw-hScrlLz-75" value="" style="shape=partialRectangle;overflow=hidden;connectable=0;fillColor=none;top=0;left=0;bottom=1;right=0;fontFamily=Times New Roman;fontSize=14;fontStyle=1" vertex="1" parent="XtJwT1Z1h0Aw-hScrlLz-74">
          <mxGeometry width="30" height="30" as="geometry">
            <mxRectangle width="30" height="30" as="alternateBounds" />
          </mxGeometry>
        </mxCell>
        <mxCell id="XtJwT1Z1h0Aw-hScrlLz-76" value="query" style="shape=partialRectangle;overflow=hidden;connectable=0;fillColor=none;top=0;left=0;bottom=1;right=0;align=left;spacingLeft=6;fontFamily=Times New Roman;fontSize=14;fontStyle=1" vertex="1" parent="XtJwT1Z1h0Aw-hScrlLz-74">
          <mxGeometry x="30" width="220" height="30" as="geometry">
            <mxRectangle width="220" height="30" as="alternateBounds" />
          </mxGeometry>
        </mxCell>
        <mxCell id="XtJwT1Z1h0Aw-hScrlLz-77" style="shape=partialRectangle;collapsible=0;dropTarget=0;pointerEvents=0;fillColor=none;points=[[0,0.5],[1,0.5]];portConstraint=eastwest;top=0;left=0;right=0;bottom=0;fontFamily=Times New Roman;fontSize=14;fontStyle=1" vertex="1" parent="XtJwT1Z1h0Aw-hScrlLz-64">
          <mxGeometry y="150" width="250" height="30" as="geometry" />
        </mxCell>
        <mxCell id="XtJwT1Z1h0Aw-hScrlLz-78" style="shape=partialRectangle;overflow=hidden;connectable=0;fillColor=none;top=0;left=0;bottom=1;right=0;fontFamily=Times New Roman;fontSize=14;fontStyle=1" vertex="1" parent="XtJwT1Z1h0Aw-hScrlLz-77">
          <mxGeometry width="30" height="30" as="geometry">
            <mxRectangle width="30" height="30" as="alternateBounds" />
          </mxGeometry>
        </mxCell>
        <mxCell id="XtJwT1Z1h0Aw-hScrlLz-79" value="publision_time" style="shape=partialRectangle;overflow=hidden;connectable=0;fillColor=none;top=0;left=0;bottom=1;right=0;align=left;spacingLeft=6;fontFamily=Times New Roman;fontSize=14;fontStyle=1" vertex="1" parent="XtJwT1Z1h0Aw-hScrlLz-77">
          <mxGeometry x="30" width="220" height="30" as="geometry">
            <mxRectangle width="220" height="30" as="alternateBounds" />
          </mxGeometry>
        </mxCell>
        <mxCell id="XtJwT1Z1h0Aw-hScrlLz-80" style="shape=partialRectangle;collapsible=0;dropTarget=0;pointerEvents=0;fillColor=none;points=[[0,0.5],[1,0.5]];portConstraint=eastwest;top=0;left=0;right=0;bottom=0;fontFamily=Times New Roman;fontSize=14;fontStyle=1" vertex="1" parent="XtJwT1Z1h0Aw-hScrlLz-64">
          <mxGeometry y="180" width="250" height="30" as="geometry" />
        </mxCell>
        <mxCell id="XtJwT1Z1h0Aw-hScrlLz-81" style="shape=partialRectangle;overflow=hidden;connectable=0;fillColor=none;top=0;left=0;bottom=1;right=0;fontFamily=Times New Roman;fontSize=14;fontStyle=1" vertex="1" parent="XtJwT1Z1h0Aw-hScrlLz-80">
          <mxGeometry width="30" height="30" as="geometry">
            <mxRectangle width="30" height="30" as="alternateBounds" />
          </mxGeometry>
        </mxCell>
        <mxCell id="XtJwT1Z1h0Aw-hScrlLz-82" value="reported" style="shape=partialRectangle;overflow=hidden;connectable=0;fillColor=none;top=0;left=0;bottom=1;right=0;align=left;spacingLeft=6;fontFamily=Times New Roman;fontSize=14;fontStyle=1" vertex="1" parent="XtJwT1Z1h0Aw-hScrlLz-80">
          <mxGeometry x="30" width="220" height="30" as="geometry">
            <mxRectangle width="220" height="30" as="alternateBounds" />
          </mxGeometry>
        </mxCell>
        <mxCell id="XtJwT1Z1h0Aw-hScrlLz-83" style="edgeStyle=orthogonalEdgeStyle;rounded=0;orthogonalLoop=1;jettySize=auto;html=1;exitX=1;exitY=0.5;exitDx=0;exitDy=0;fontFamily=Times New Roman;fontSize=14;startArrow=open;startFill=0;endArrow=ERzeroToMany;endFill=0;entryX=0;entryY=0.5;entryDx=0;entryDy=0;" edge="1" parent="1" source="uVwZbVEdoKsYDZkxIZQF-101" target="XtJwT1Z1h0Aw-hScrlLz-71">
          <mxGeometry relative="1" as="geometry">
            <mxPoint x="1460" y="220" as="sourcePoint" />
            <mxPoint x="1420" y="200" as="targetPoint" />
            <Array as="points">
              <mxPoint x="1440" y="375" />
              <mxPoint x="1440" y="215" />
            </Array>
          </mxGeometry>
        </mxCell>
        <mxCell id="XtJwT1Z1h0Aw-hScrlLz-84" style="edgeStyle=orthogonalEdgeStyle;rounded=0;orthogonalLoop=1;jettySize=auto;html=1;fontFamily=Times New Roman;fontSize=14;startArrow=open;startFill=0;endArrow=ERzeroToMany;endFill=0;entryX=0;entryY=0.5;entryDx=0;entryDy=0;exitX=1;exitY=0.5;exitDx=0;exitDy=0;" edge="1" parent="1" source="uVwZbVEdoKsYDZkxIZQF-37" target="XtJwT1Z1h0Aw-hScrlLz-68">
          <mxGeometry relative="1" as="geometry">
            <mxPoint x="1250" y="310" as="sourcePoint" />
            <mxPoint x="1470" y="225" as="targetPoint" />
            <Array as="points">
              <mxPoint x="1120" y="405" />
              <mxPoint x="1120" y="310" />
              <mxPoint x="1420" y="310" />
              <mxPoint x="1420" y="185" />
            </Array>
          </mxGeometry>
        </mxCell>
        <mxCell id="XtJwT1Z1h0Aw-hScrlLz-95" style="edgeStyle=orthogonalEdgeStyle;rounded=0;orthogonalLoop=1;jettySize=auto;html=1;exitX=1;exitY=0.5;exitDx=0;exitDy=0;fontFamily=Times New Roman;fontSize=14;startArrow=open;startFill=0;endArrow=ERzeroToMany;endFill=0;entryX=1;entryY=0.5;entryDx=0;entryDy=0;" edge="1" parent="1" source="uVwZbVEdoKsYDZkxIZQF-30" target="XtJwT1Z1h0Aw-hScrlLz-89">
          <mxGeometry relative="1" as="geometry">
            <mxPoint x="935" y="730" as="sourcePoint" />
            <mxPoint x="995" y="1070" as="targetPoint" />
            <Array as="points">
              <mxPoint x="1110" y="655" />
              <mxPoint x="1110" y="555" />
            </Array>
          </mxGeometry>
        </mxCell>
      </root>
    </mxGraphModel>
  </diagram>
</mxfile>
